<svg xmlns:svg="http://www.w3.org/2000/svg" xmlns="http://www.w3.org/2000/svg" xmlns:xlink="http://www.w3.org/1999/xlink" xmlns:inkscape="http://www.inkscape.org/namespaces/inkscape" width="2515.27099609375" height="1024.0" id="svgoverlay" version="1.1">
  <defs id="defs4">
    <clipPath id="edgeclip">
      <path id="clippath" d="M1603.960938 103.178955 L1601.890259 107.685364, 1594.723267 119.634338, 1594.372681 120.062317, 1592.463989 124.794922, 1588.485718 130.916382, 1584.835571 134.054443, 1575.409424 140.446472, 1574.522583 140.931152, 1567.340942 143.082825, 1565.100098 143.199707, 1562.545166 142.867676, 1558.556763 141.599548, 1553.125488 141.280640, 1551.640381 141.669434, 1544.247681 140.676086, 1542.894775 140.166565, 1540.768066 138.995667, 1535.564087 138.502258, 1529.967285 138.386597, 1527.988525 138.593933, 1523.169800 137.172546, 1520.183838 137.079529, 1517.420166 136.856201, 1514.209351 136.461060, 1512.805054 135.875366, 1507.165894 137.099976, 1504.427979 136.979309, 1501.775391 136.782471, 1498.604248 136.963623, 1494.760864 138.875244, 1490.794312 139.456177, 1488.317383 139.146545, 1485.429199 138.995789, 1483.846436 138.090271, 1479.795654 137.561890, 1478.060791 136.356384, 1476.584595 135.107666, 1473.557129 133.348816, 1472.303345 132.434998, 1469.500000 131.552917, 1467.397461 130.293274, 1465.276001 129.073364, 1462.871460 127.688538, 1461.889771 127.654724, 1463.755981 130.466919, 1464.899414 134.399475, 1466.651978 140.785828, 1466.837158 142.292236, 1466.686279 144.769653, 1468.692383 144.712830, 1467.078979 148.156921, 1465.840332 151.901611, 1468.901123 152.594482, 1467.258667 156.442444, 1466.781616 160.742554, 1470.977539 160.571960, 1471.173950 164.880859, 1466.073853 171.869202, 1467.192017 176.015198, 1466.589478 182.341980, 1467.250000 187.260071, 1468.421631 192.595886, 1468.186157 199.697144, 1467.790649 203.074829, 1466.564453 208.030701, 1466.542725 212.407898, 1469.039429 211.832214, 1471.572876 214.319397, 1473.803711 213.628052, 1475.897339 216.123962, 1476.755859 219.061768, 1477.475220 222.158691, 1478.876343 225.745789, 1474.004150 230.360107, 1469.798096 234.169067, 1467.232544 238.992432, 1465.848999 244.733765, 1467.019531 249.279907, 1464.777832 254.320618, 1462.199829 260.093323, 1459.797974 266.409485, 1456.416992 272.412659, 1451.321533 277.932129, 1446.812866 282.942749, 1441.608032 284.100464, 1440.591431 293.243225, 1440.452515 301.752747, 1438.574219 312.542786, 1438.733154 321.552002, 1443.307129 323.038147, 1440.477661 332.301575, 1437.156250 342.266602, 1436.091431 351.021729, 1436.720093 359.414612, 1436.075195 368.781555, 1433.271973 379.165222, 1429.867310 388.424927, 1426.281006 393.401794, 1430.437378 393.852905, 1428.757935 399.445740, 1429.905029 406.167786, 1433.662109 406.266968, 1436.420288 412.167969, 1441.143677 418.498047, 1445.726318 419.420959, 1447.937622 426.072754, 1450.000977 432.291016, 1451.948730 436.711487, 1455.298828 439.936096, 1463.007812 441.514221, 1468.615723 443.375366, 1473.922119 444.545471, 1473.557983 461.871460, 1467.732910 463.792053, 1458.487793 460.652283, 1450.989746 458.124817, 1444.245605 456.687927, 1435.779297 456.853455, 1427.909058 457.993347, 1420.621582 458.412354, 1412.780762 462.079590, 1402.077759 458.379028, 1389.190796 456.828430, 1386.489502 460.162231, 1377.389893 460.120728, 1368.755127 461.064087, 1368.369263 465.995239, 1359.977905 469.545105, 1352.687622 476.551208, 1343.198853 485.005249, 1331.197266 491.879944, 1322.233032 496.012329, 1314.545654 497.247925, 1306.315308 502.525269, 1302.453491 507.592896, 1303.887207 510.991760, 1297.280151 516.194458, 1292.007080 522.521057, 1286.422241 530.271301, 1280.824097 538.361633, 1276.091553 546.008911, 1272.063232 544.793274, 1267.887451 555.818848, 1262.949219 569.301880, 1259.302246 581.204712, 1255.830933 593.077576, 1254.487305 602.935547, 1256.600708 607.936401, 1254.840820 617.334106, 1252.822388 628.349121, 1253.795044 637.137878, 1255.265625 642.512329, 1257.253418 647.337036, 1259.685913 654.414062, 1265.078247 661.739990, 1267.580688 660.503967, 1272.845093 667.077820, 1277.931152 663.618530, 1282.094849 666.581421, 1287.032837 668.542725, 1292.534058 670.990662, 1301.931030 676.794800, 1312.191895 682.571045, 1318.135010 688.051147, 1324.013794 692.918579, 1329.139160 697.154236, 1334.796631 701.422119, 1338.684448 705.904114, 1340.485107 705.035461, 1344.984131 707.506653, 1349.129883 710.619812, 1351.193848 709.293579, 1356.452759 713.093323, 1362.416626 717.579712, 1365.946533 718.839233, 1377.595581 730.118103, 1384.569458 737.168945, 1389.828369 746.057251, 1391.156372 752.440491, 1391.848145 757.361694, 1392.607300 764.790894, 1391.875488 765.733032, 1393.629395 767.934021, 1394.234253 769.382996, 1394.560059 773.831055, 1395.862549 777.186707, 1397.744873 778.088562, 1401.116577 780.832275, 1402.734497 784.866699, 1404.590332 786.324585, 1406.689087 788.789429, 1409.348511 792.449585, 1409.678711 795.137085, 1412.527222 799.680176, 1413.725464 799.772644, 1417.541138 801.042847, 1421.325195 804.282593, 1422.614868 807.731323, 1425.472290 807.405884, 1427.888916 810.775024, 1429.797607 811.944336, 1433.741821 815.936401, 1435.606445 816.603149, 1438.312378 821.954285, 1441.300415 825.255005, 1443.063599 827.739197, 1444.271606 829.824524, 1445.743652 832.196838, 1446.024536 832.418091, 1448.630737 836.942322, 1448.746948 839.378906, 1451.823975 836.576904, 1455.177734 836.603882, 1460.258667 836.294189, 1462.582153 836.831177, 1463.973755 837.801819, 1464.716797 839.338745, 1466.577515 842.473755, 1467.799072 846.279785, 1468.428589 848.008423, 1468.838135 850.061035, 1471.964478 853.068726, 1475.326050 856.876587, 1480.465088 861.874756, 1481.800415 864.981323, 1482.374023 868.634338, 1482.283081 870.903625, 1485.002563 874.974731, 1488.928955 881.382568, 1491.933472 887.496643, 1495.777100 894.768799, 1496.938721 899.329285, 1497.435303 902.166748, 1498.501709 903.247070, 1503.774292 910.193787, 1508.318237 915.460327, 1513.269409 919.115967, 1516.232544 922.394165, 1522.286499 924.834900, 1529.538452 926.330566, 1537.547729 926.963745, 1544.891968 927.284058, 1552.704956 926.927002, 1560.456299 930.282776, 1566.297852 928.146973, 1572.023682 924.847961, 1577.427368 920.541382, 1581.789429 914.790161, 1584.208374 905.688354, 1587.063110 895.269958, 1590.442627 887.222656, 1594.043457 879.313354, 1596.853394 873.624634, 1595.718506 868.608887, 1598.331665 862.979797, 1599.391235 857.538269, 1603.192749 855.992188, 1598.613403 852.339233, 1597.835693 846.708557, 1597.880493 839.354309, 1596.932617 831.240479, 1596.147705 823.215942, 1597.299438 817.965332, 1598.305054 811.846313, 1600.935791 809.205750, 1603.126587 805.518677, 1604.141724 801.313721, 1604.072754 794.624512, 1605.541382 788.857544, 1609.118774 788.568970, 1616.177368 786.842590, 1626.460205 798.811218, 1627.915405 806.940918, 1624.823364 810.706543, 1624.677002 815.736816, 1630.093750 829.944092, 1631.718506 838.390808, 1634.060669 846.140503, 1631.300659 848.505798, 1633.697021 855.286011, 1643.150269 877.476074, 1646.541748 886.533203, 1650.357910 894.136047, 1653.850708 908.031921, 1657.392944 909.994507, 1660.216064 917.533630, 1655.330811 921.991882, 1661.156494 926.713135, 1670.136597 933.130981, 1677.240601 942.474182, 1684.017212 951.361084, 1691.274292 962.471252, 1699.323486 976.801208, 1705.130005 986.911560, 1711.890991 994.050720, 1723.399902 1000.636475, 1733.118652 1006.683472, 1747.914917 1013.225952, 1765.284302 1017.106018, 1775.978516 1023.303406, 1788.301880 1024.000000, 1801.117798 1019.771973, 1814.392578 1016.921265, 1826.347412 1014.615662, 1835.367798 1009.013916, 1843.986572 1004.753967, 1849.953857 995.803284, 1857.886841 989.390320, 1863.088745 983.491455, 1865.255127 977.774536, 1866.779541 972.471680, 1867.776855 968.821960, 1867.030396 962.194275, 1864.692383 958.299744, 1864.507080 952.468018, 1866.680786 943.875549, 1868.096924 937.395569, 1867.638916 930.771179, 1873.581177 920.391174, 1877.176270 913.837097, 1880.529785 908.112000, 1882.262695 906.758362, 1885.973755 903.877075, 1887.146606 903.321350, 1887.595947 902.793640, 1887.761108 901.807983, 1887.609741 901.319397, 1888.016846 900.209656, 1888.006714 899.826721, 1887.329590 899.907227, 1881.520142 900.268494, 1877.623779 898.645569, 1875.470825 896.983826, 1873.133179 893.717224, 1871.340332 890.084717, 1870.914307 885.922668, 1866.429199 881.360168, 1867.942993 876.664429, 1869.234863 872.334961, 1863.282715 867.600342, 1866.497925 860.583618, 1868.245850 853.335754, 1869.452148 846.628967, 1866.924683 844.933960, 1869.052124 837.394531, 1870.678589 829.613159, 1871.063477 823.923584, 1870.285889 819.132263, 1875.823975 811.754272, 1878.272827 803.384644, 1879.137695 798.772827, 1880.673950 794.283813, 1913.043945 790.322510, 1919.190796 794.276245, 1926.319336 799.792969, 1931.394897 802.044189, 1936.152710 803.952393, 1940.072388 812.872803, 1943.170044 813.585815, 1945.820435 814.441772, 1948.205811 816.105835, 1950.436523 811.221191, 1953.021240 813.259583, 1954.816650 815.758545, 1956.050781 818.410828, 1959.357300 814.539795, 1961.491211 815.486328, 1963.187988 815.618958, 1966.224854 813.545044, 1968.518677 813.737183, 1972.713623 812.379517, 1974.334106 812.959778, 1981.276367 812.924316, 1989.633179 812.665955, 1997.871704 811.630432, 2008.052124 811.256714, 2012.275391 811.390930, 2016.819458 811.936829, 2023.479370 813.369385, 2025.030029 813.744019, 2036.411499 817.096985, 2041.810181 819.463989, 2043.107910 820.785767, 2045.709839 823.536011, 2048.180176 827.932739, 2049.081787 828.678528, 2049.744873 828.573608, 2051.325684 827.989502, 2053.109863 828.466309, 2053.286621 828.687378, 2055.593262 829.563782, 2057.447266 830.089844, 2060.860352 831.003235, 2061.022949 832.356445, 2061.022949 832.356445, 2061.855957 832.105957, 2065.325439 832.026611, 2088.722412 836.241821, 2101.547119 837.322998, 2113.475586 836.748169, 2128.036621 834.031616, 2140.540771 833.110657, 2146.218018 834.366089, 2157.582275 832.440674, 2168.904541 828.749634, 2177.575195 825.384460, 2181.186279 827.235962, 2186.741211 822.841492, 2196.331299 820.849426, 2212.055908 815.837830, 2223.931885 810.433533, 2234.145508 805.705688, 2242.802002 803.791748, 2243.709473 801.286194, 2251.547119 796.134277, 2259.063965 789.673706, 2268.349609 786.801636, 2276.353516 783.085388, 2283.395264 779.204346, 2291.508057 775.484985, 2300.082275 776.602905, 2308.453369 773.123657, 2315.886963 769.052979, 2315.238281 764.383057, 2319.833252 759.723328, 2324.404053 754.408813, 2327.869141 751.143921, 2328.877441 745.050842, 2330.130615 738.820190, 2327.557617 734.437256, 2329.292236 730.674255, 2331.236084 722.502808, 2332.250732 714.569946, 2335.967773 705.312866, 2336.268799 699.117920, 2334.306641 691.117554, 2336.880859 684.652466, 2335.081787 674.570374, 2334.049561 666.644836, 2330.542969 659.559814, 2325.476318 649.861328, 2324.449707 640.030273, 2322.535400 627.652710, 2323.494385 617.239746, 2321.693359 610.065430, 2316.123779 602.781616, 2314.685547 594.839050, 2305.932861 587.205139, 2303.787842 578.077271, 2298.274902 566.510010, 2290.031738 561.209717, 2280.313232 558.293945, 2270.873779 551.406006, 2260.244141 546.928467, 2252.259277 543.634888, 2251.165527 546.379028, 2241.886475 545.000732, 2233.860107 540.763916, 2226.390625 540.221680, 2219.637207 536.594482, 2214.449707 534.689453, 2207.453857 531.230042, 2202.291016 531.360291, 2192.697754 531.426392, 2187.305420 528.459961, 2187.881104 511.963928, 2194.839355 512.290405, 2205.082520 512.375061, 2214.222168 512.339478, 2221.842285 515.851929, 2229.348877 518.568359, 2235.370117 521.507080, 2239.707764 518.146118, 2246.917480 515.112549, 2245.638428 513.166992, 2251.591797 509.984802, 2258.587891 509.965637, 2262.746338 508.829590, 2268.032715 509.319885, 2273.403809 509.879822, 2279.141602 508.690308, 2284.091797 512.258667, 2290.727051 517.194458, 2297.885010 517.811890, 2304.822754 520.728027, 2311.682373 519.396973, 2321.264648 517.674500, 2330.092773 517.432190, 2337.215088 513.049561, 2343.620117 512.537720, 2351.350830 510.276001, 2359.234375 505.670532, 2366.056152 493.743225, 2375.751709 482.599487, 2383.700195 477.646118, 2389.512451 470.451721, 2396.325439 461.995422, 2405.754639 454.693909, 2412.081299 444.620422, 2419.177490 435.763123, 2425.009521 429.706421, 2429.719971 422.415588, 2436.731689 418.644775, 2437.864258 412.272827, 2442.841797 408.314941, 2446.882324 401.734619, 2451.038574 394.609619, 2451.661377 389.884033, 2455.518311 383.666382, 2460.270264 376.613403, 2467.076416 366.610046, 2471.723877 361.934326, 2478.856934 353.707031, 2484.196777 346.738525, 2488.424805 340.146973, 2493.368652 337.542786, 2498.878906 331.117371, 2496.498047 326.412964, 2499.489746 319.377686, 2503.498779 316.701599, 2508.214355 308.190125, 2509.364990 301.425476, 2510.464600 293.413269, 2511.426025 278.005920, 2511.975098 268.370789, 2514.575439 263.162720, 2515.270996 256.662048, 2514.905518 248.843872, 2510.115234 240.705505, 2508.079102 235.424927, 2506.162598 230.410034, 2503.548096 223.244080, 2498.360352 210.495239, 2493.582275 203.441772, 2492.308594 201.746765, 2491.591797 201.126221, 2490.662354 200.643982, 2490.148438 203.934570, 2489.036621 204.525818, 2487.345947 204.689270, 2485.631348 204.946716, 2483.902344 205.742432, 2482.914795 203.751953, 2480.084229 206.619629, 2477.185791 208.428284, 2474.252686 210.258423, 2472.574707 211.101379, 2471.822266 211.337097, 2470.072510 211.885010, 2468.010010 212.520447, 2465.058594 213.366516, 2459.366211 214.112549, 2453.690918 214.595886, 2449.385010 214.340088, 2448.079834 214.196472, 2445.887695 213.967346, 2444.472168 214.229858, 2441.140869 214.322083, 2438.643799 214.146179, 2436.745850 215.627319, 2434.530029 218.331177, 2433.152344 220.679504, 2429.516357 222.982239, 2425.734863 226.298523, 2423.109863 233.452271, 2420.571045 234.160400, 2417.695801 236.976929, 2415.069824 239.030884, 2411.931885 238.471069, 2408.037354 242.434937, 2405.334961 245.136108, 2400.793701 248.926758, 2397.572998 251.821167, 2395.173096 253.349060, 2394.269043 254.659241, 2392.330811 257.223511, 2389.195557 259.370605, 2387.167236 260.590149, 2382.659180 263.215210, 2379.360107 263.583313, 2376.809326 261.284119, 2373.236816 261.796387, 2369.376953 259.943176, 2366.777100 258.105652, 2362.509277 256.218567, 2358.557129 253.874329, 2354.974609 251.463440, 2351.378906 251.492432, 2346.598389 247.944214, 2341.944092 241.623840, 2336.715576 237.219360, 2332.285645 230.471985, 2327.536621 224.599792, 2324.604492 222.820557, 2317.377197 215.169312, 2311.502441 207.401978, 2303.234863 200.713318, 2294.886475 195.128113, 2287.742676 189.104553, 2280.975830 183.690979, 2274.979492 178.410400, 2269.789795 173.471436, 2258.691895 166.663757, 2248.402832 157.074280, 2238.669189 151.470886, 2228.925049 147.391113, 2213.342285 139.871399, 2208.815430 138.394043, 2200.255615 134.998108, 2192.871338 131.638916, 2180.954834 125.647949, 2174.477295 122.683960, 2168.883789 119.940002, 2161.693604 114.016602, 2150.376709 105.986206, 2148.667725 103.034851, 2135.748291 95.968262, 2132.253174 95.490662, 2122.904053 91.427368, 2117.791016 90.126587, 2113.394531 88.764893, 2104.683105 87.242554, 2097.220947 82.956482, 2093.585205 81.805908, 2089.487793 78.462158, 2084.934326 74.391602, 2082.276611 71.962097, 2081.688965 71.401917, 2080.936768 70.213867, 2078.266357 68.195435, 2075.756348 68.029114, 2074.234131 67.830322, 2071.126709 67.075500, 2069.180176 67.972351, 2067.125000 68.054016, 2064.203857 71.484802, 2061.388672 74.793030, 2059.148926 74.865112, 2056.410889 76.451782, 2048.919189 79.592529, 2044.923706 79.304993, 2042.377075 79.601868, 2039.197021 81.331116, 2035.465942 82.395203, 2031.475586 83.477051, 2029.121948 82.909668, 2027.835571 84.637024, 2024.461182 85.598022, 2023.107178 84.600830, 2019.853027 84.666809, 2016.759033 84.454956, 2014.657349 85.312683, 2010.200562 84.929443, 2009.015625 82.725159, 2004.930908 85.023193, 1998.054932 85.863892, 1992.763306 87.554565, 1988.865112 85.055237, 1983.957031 85.952576, 1978.909180 88.316895, 1975.272095 87.064270, 1975.723999 90.213440, 1972.481445 92.265320, 1968.807007 94.461182, 1966.100464 92.696899, 1961.839844 93.937439, 1955.994141 95.534424, 1950.971802 96.788208, 1945.536499 98.517944, 1939.614014 100.504089, 1933.450562 102.380676, 1927.228760 104.361938, 1920.866699 106.928772, 1914.854370 109.621094, 1910.230103 106.956909, 1904.321045 109.811584, 1899.227783 114.410400, 1891.500244 118.321045, 1882.019531 121.880493, 1848.135498 122.340088, 1831.680786 119.074585, 1822.963989 112.462891, 1811.815552 107.586182, 1798.934937 101.838745, 1788.540405 99.317322, 1780.552979 99.291077, 1776.671753 94.600708, 1770.712158 93.016113, 1761.170044 91.010864, 1753.970459 90.492798, 1747.885986 89.866394, 1742.249878 88.933044, 1736.534668 88.332275, 1730.377075 87.583008, 1724.525024 87.207214, 1719.585449 86.905090, 1716.224487 83.987793, 1710.620728 82.028625, 1709.488159 84.118103, 1703.990723 82.871460, 1700.575195 77.633972, 1695.276489 77.301758, 1691.058716 78.380432, 1689.075195 75.130737, 1686.191528 76.098938, 1683.821777 79.438599, 1680.389404 79.303833, 1679.518066 76.723755, 1676.650024 79.329956, 1672.821289 79.678833, 1668.670776 79.178772, 1663.967041 78.624146, 1662.031616 75.256287, 1659.179565 77.847961, 1653.978149 77.093994, 1649.755249 75.075134, 1645.862915 74.959961, 1641.283569 75.433594, 1637.455200 75.834412, 1633.190063 76.621460, 1630.484375 75.882202, 1626.924561 75.282776, 1623.849731 74.096130, 1621.707886 70.585632, 1615.766968 71.381287, 1612.644653 72.671631, 1611.082275 71.043396, 1610.008423 71.446167, 1609.302368 70.050171, 1609.061523 70.262146, 1608.906372 70.587952, 1608.775024 71.640930, 1608.570923 73.742615, 1604.984619 78.073364, 1604.230469 78.857361, 1602.853638 85.695374, 1603.220459 91.281982, 1603.960938 103.178955Z M995.588379 28.743042 L998.852295 34.352356, 1003.320068 39.628174, 1006.887756 42.448914, 1009.688538 46.372009, 1013.785217 50.234985, 1017.200989 51.103394, 1020.740601 52.036621, 1024.968750 55.054993, 1028.654297 58.182373, 1032.757446 60.446838, 1038.136108 62.467896, 1041.423462 62.598816, 1047.559814 63.721436, 1049.946167 63.163086, 1054.271484 63.323181, 1056.594604 62.793152, 1057.577515 63.186401, 1067.463745 63.909180, 1070.662598 65.605713, 1071.925659 62.786194, 1074.800171 61.407837, 1079.837891 61.270081, 1081.196777 59.493408, 1082.816284 58.157776, 1086.094849 57.890442, 1087.984375 54.967651, 1090.075806 55.795532, 1092.358521 54.965393, 1096.336060 54.429077, 1098.770020 55.253601, 1103.410400 57.117004, 1102.032837 53.491882, 1104.635132 52.971191, 1109.321655 55.342957, 1112.413452 54.993835, 1113.719971 52.039856, 1114.817749 51.963379, 1115.672852 48.459290, 1115.851318 46.036194, 1117.413574 44.006592, 1117.231812 41.483643, 1119.046631 39.052124, 1120.333740 37.882141, 1121.504761 39.608093, 1123.608032 41.483582, 1124.152588 42.875549, 1126.936523 47.161621, 1129.510620 52.114014, 1128.008545 53.182434, 1130.007080 55.967957, 1132.386841 58.807251, 1129.612183 60.846191, 1132.033325 64.567993, 1135.248413 68.979126, 1139.486328 72.855896, 1143.565308 77.940979, 1147.147827 83.891968, 1151.945190 88.932007, 1158.385986 92.210938, 1164.697021 95.069031, 1168.296387 101.330261, 1170.857544 107.024658, 1177.673096 112.560181, 1178.129517 117.484985, 1182.485596 121.442200, 1182.419067 128.519958, 1185.729126 141.919373, 1185.340332 144.476807, 1183.940430 149.276794, 1183.146973 154.244995, 1187.731201 162.296936, 1186.774902 167.381836, 1189.655762 174.121948, 1187.390259 179.645874, 1189.795166 185.553284, 1188.481934 192.038879, 1190.745972 201.413147, 1186.399780 204.487305, 1187.554443 213.178162, 1189.269531 220.944397, 1192.524048 229.092041, 1196.668945 236.811890, 1200.215820 243.388123, 1202.816162 251.146240, 1203.389526 257.952637, 1202.543213 265.352600, 1206.270874 276.508240, 1204.145142 278.997192, 1209.300903 287.509155, 1206.888062 291.399231, 1210.401978 300.940002, 1213.426392 311.216675, 1219.453491 327.369324, 1222.799072 338.482666, 1224.451660 346.682739, 1224.130981 354.067444, 1222.589355 362.516846, 1217.848389 366.922241, 1217.811035 371.854797, 1211.718872 375.455994, 1203.070190 380.696045, 1192.737549 388.960205, 1188.782715 396.633667, 1181.052979 401.016235, 1177.824707 411.564087, 1173.816895 425.367432, 1178.032593 439.065247, 1190.403442 440.183533, 1199.024048 443.404480, 1208.919922 451.104614, 1217.122681 449.772217, 1223.390381 454.027405, 1231.544067 460.906494, 1239.336182 469.152527, 1247.006592 474.311462, 1248.916748 481.858032, 1249.760498 489.185120, 1250.258911 496.341370, 1248.771118 503.464661, 1246.947388 511.440247, 1247.787476 522.076782, 1251.406128 534.827515, 1249.587646 537.502625, 1252.048218 543.694824, 1249.693481 546.881348, 1251.163940 554.154175, 1248.394287 557.854980, 1249.580444 566.511963, 1250.806030 573.658813, 1251.447021 580.272888, 1251.502563 587.068726, 1251.382935 594.601807, 1252.066040 603.820251, 1252.822388 612.343201, 1249.392944 615.075562, 1251.857422 621.787598, 1249.209229 625.669983, 1250.588989 630.945923, 1247.551025 638.566833, 1247.182373 649.916870, 1242.542603 652.692017, 1238.916382 661.127136, 1233.799438 664.657593, 1229.618652 666.228638, 1225.171021 667.105286, 1220.297485 674.929504, 1215.870361 676.523621, 1211.788696 684.810120, 1206.445190 686.780457, 1201.900269 692.322571, 1198.539307 694.482178, 1195.058472 693.993286, 1191.944458 698.341675, 1187.080200 701.284058, 1183.074463 703.944092, 1177.069946 706.508911, 1171.850464 708.675171, 1166.246460 711.208984, 1159.564941 714.150696, 1160.165039 711.296265, 1153.718140 714.277954, 1146.668457 716.879639, 1146.271606 713.523071, 1138.910034 717.139771, 1128.635986 721.547180, 1126.346924 723.348267, 1125.173706 724.717529, 1124.518311 731.513000, 1127.205322 738.459290, 1128.570312 740.139832, 1128.514282 740.418335, 1126.037354 742.532532, 1124.594604 745.458862, 1120.850342 747.915894, 1118.890747 749.344849, 1116.498169 752.026062, 1113.446899 754.581177, 1111.728027 757.309570, 1107.914917 760.071777, 1104.104614 761.578125, 1101.091919 760.965820, 1097.523315 763.597839, 1093.983032 766.920837, 1090.721313 768.006042, 1087.109131 768.790649, 1084.420044 770.206299, 1081.393066 770.632812, 1076.791016 770.713501, 1073.627930 773.001282, 1069.725464 774.066650, 1068.739502 774.924927, 1063.630493 778.643921, 1061.886353 782.573242, 1059.261475 786.256592, 1057.334839 788.183716, 1054.551270 791.390015, 1051.808594 792.811768, 1047.128296 794.619934, 1045.318848 795.520142, 1042.228271 796.068726, 1038.305298 797.834229, 1038.305298 797.834229, 1032.414917 800.143921, 1029.543091 799.872925, 1026.453857 799.726074, 1022.969849 798.690430, 1021.545898 797.985229, 1014.487244 795.151306, 1010.502625 795.536072, 1005.788635 799.327026, 1004.415405 800.209473, 1001.120728 802.390259, 997.007324 805.201477, 992.981812 808.019714, 990.326233 812.082520, 987.073975 815.095642, 984.224976 819.396851, 982.674805 822.651733, 978.031311 830.926636, 978.869568 834.416870, 980.255371 836.282959, 980.783997 837.739014, 971.691406 842.409302, 967.780518 844.643494, 963.770020 846.203308, 958.908569 845.105530, 949.747559 847.301025, 945.048767 845.406250, 938.315979 845.905579, 934.502380 844.002808, 929.362915 844.860474, 926.610779 843.513794, 920.563416 845.558899, 919.704895 841.066528, 916.399475 839.767700, 917.196777 837.042542, 913.848633 832.764282, 909.893250 833.180115, 910.569092 828.680420, 908.178772 824.746338, 909.144653 819.247864, 905.539612 816.375000, 889.920593 822.686646, 885.557068 830.675964, 881.648438 832.446411, 878.618469 837.717285, 872.302673 842.499939, 867.505737 849.604919, 867.603882 853.111450, 862.755005 857.370911, 860.121765 863.063110, 862.432556 871.281555, 859.612000 874.456299, 860.291077 880.578430, 854.797607 885.524902, 851.583496 891.277039, 846.318359 895.687073, 842.247559 905.058594, 835.092102 905.286011, 830.141724 908.543762, 822.363220 906.627686, 815.587524 907.576721, 808.147156 906.230286, 803.966675 905.889771, 802.912903 903.727112, 800.522339 901.484375, 796.553955 900.286804, 793.198730 896.739746, 786.559265 893.329407, 782.977356 891.748901, 771.422913 890.432129, 767.846924 891.221558, 761.002441 895.333008, 759.060120 897.904419, 755.721497 900.556763, 754.725281 902.078308, 751.540527 902.296936, 749.333984 900.744446, 749.292969 898.193481, 750.730713 895.685730, 749.975952 893.262390, 749.456238 891.407349, 750.221558 889.205566, 749.019775 887.546082, 748.515930 885.250916, 747.048523 882.955688, 746.389526 881.997620, 746.303772 881.206909, 745.619385 880.462708, 745.320679 879.591431, 746.583740 877.014587, 745.945862 876.202271, 745.379395 874.432739, 745.133972 870.444458, 743.889099 868.609253, 742.433350 865.271240, 741.343811 863.755127, 739.675964 859.440369, 737.158752 842.843933, 733.898315 840.185669, 735.624146 832.180237, 731.834045 829.228394, 727.318542 826.121460, 721.993591 822.791870, 725.153809 814.259155, 716.910278 809.946106, 719.727966 804.950684, 712.628113 799.333496, 704.270691 792.054138, 709.776062 788.904175, 704.103271 782.711487, 708.101440 779.809082, 703.100830 772.946899, 698.727356 766.686279, 703.419861 765.547119, 698.460693 758.651428, 693.697449 752.806641, 700.235046 751.079895, 696.946533 745.729004, 693.969788 740.950562, 691.488281 736.120544, 687.820435 730.675232, 693.329468 728.373901, 689.343750 722.381897, 685.579468 716.564941, 657.919617 702.605469, 654.379333 704.872803, 650.596252 707.542603, 641.936523 705.115601, 638.658813 708.298035, 634.843079 711.419189, 631.961914 715.004883, 628.139343 717.785339, 623.409302 715.440308, 620.653381 718.780334, 618.217651 722.189209, 613.759338 719.053650, 612.223572 722.929932, 609.981262 727.310913, 606.517639 723.563843, 604.739624 730.028931, 601.361572 725.034424, 599.961853 731.056274, 598.588135 735.089355, 596.008850 731.560547, 595.379150 736.884521, 591.207336 730.950989, 591.128723 733.831421, 590.118896 735.949158, 588.597046 735.669006, 579.215942 732.329224, 574.031250 731.672119, 566.718872 728.385742, 564.459106 728.654419, 561.737488 728.794861, 554.541016 727.812500, 550.360718 728.188843, 545.874207 727.864075, 542.440369 729.217773, 539.547668 730.001465, 535.957092 729.818665, 533.528137 731.148804, 530.939880 732.662903, 525.810852 733.710388, 523.823975 736.334473, 521.851929 738.760742, 520.045532 741.841919, 518.919861 744.135254, 517.730469 743.747314, 517.404480 746.238953, 516.893005 748.490295, 515.889832 749.723145, 516.242188 752.646851, 517.003113 755.502319, 517.613281 757.700989, 517.042603 759.067871, 518.300476 761.556152, 516.547852 761.934082, 513.254639 761.643799, 512.602722 763.209229, 510.976898 763.931030, 510.955017 764.807983, 508.408539 764.899963, 507.323730 765.933044, 505.568298 767.290283, 505.568298 767.290283, 504.865723 767.146484, 502.649780 764.603088, 497.360168 761.810547, 488.158539 761.200928, 483.547211 763.117554, 474.746277 765.671204, 470.987823 767.967896, 462.699219 769.343384, 457.680084 771.717102, 453.790771 772.757080, 450.485474 772.640137, 443.179413 774.269775, 439.105194 777.821289, 435.106689 776.682312, 432.862488 778.400635, 426.124268 778.648438, 423.585968 780.333008, 415.797760 779.940796, 410.853424 777.174377, 399.535614 771.389771, 388.483459 769.302551, 383.750488 770.221680, 374.405304 768.563232, 369.218750 767.309082, 369.245422 763.237122, 363.921936 761.646851, 358.977692 759.576416, 353.092865 755.832275, 344.179016 752.633789, 341.428925 747.003357, 333.958191 743.994385, 328.954315 741.438354, 328.806396 738.701416, 330.030640 735.223511, 324.173523 733.422974, 324.915985 729.415527, 325.199829 724.924316, 319.898468 723.778076, 318.416290 717.601074, 319.008179 714.293457, 320.040131 710.755615, 325.982605 708.291931, 325.796326 704.277283, 328.281281 698.785217, 329.706818 694.121704, 336.261414 688.492859, 338.407440 682.223877, 342.159637 676.340820, 339.002228 673.402405, 342.182465 667.746582, 345.381042 661.275146, 349.212067 655.688965, 350.450989 649.622681, 352.242035 643.838867, 357.077393 642.423828, 359.740814 638.054443, 362.246460 634.525391, 368.049316 631.534668, 371.504547 627.852112, 374.907318 621.686035, 378.352173 617.359741, 378.337738 609.372864, 378.952179 601.278076, 375.530182 595.967163, 371.063843 586.630676, 368.787842 582.298462, 368.799408 577.284058, 370.282776 570.633789, 374.599030 564.858521, 368.347839 562.153137, 370.855957 555.310669, 378.271515 552.725403, 379.185638 546.599487, 375.164490 541.861267, 376.297516 533.391968, 367.472382 511.346252, 360.804352 511.843323, 353.199249 512.859619, 349.968689 516.150635, 345.238068 513.669250, 338.453278 515.987122, 333.271851 518.693115, 333.241913 525.104614, 326.058380 525.424561, 318.369385 525.140198, 310.106598 526.732788, 304.878265 533.296387, 301.265778 539.726562, 300.779083 544.343140, 296.914429 543.738159, 293.325348 538.013916, 287.647064 536.408447, 281.356140 534.812256, 278.730560 527.935425, 271.417450 523.866882, 264.815399 519.821472, 260.950226 514.148315, 255.281708 514.132751, 246.785797 510.538269, 240.160675 506.462708, 233.060013 501.579407, 224.750824 495.726501, 216.871506 489.589966, 211.801208 491.687683, 206.556747 489.023682, 202.007965 480.004333, 195.527328 474.388184, 189.210052 472.065918, 184.065811 468.972534, 180.551819 458.869324, 175.678879 453.759155, 171.461472 448.891602, 167.539658 443.068054, 162.053299 436.744629, 154.308014 433.053101, 148.620285 428.484070, 144.768311 424.231506, 138.168579 422.936646, 133.692825 419.607483, 130.522903 415.580017, 123.734314 415.235168, 109.914490 408.865479, 107.069847 404.894287, 100.538330 404.104736, 90.577591 400.182617, 81.797340 398.304993, 74.231369 396.101501, 70.858444 390.370117, 64.298866 387.464111, 58.889912 383.612732, 53.617638 378.221924, 49.750397 377.899231, 49.343605 371.911255, 42.904491 366.412354, 34.989052 360.226501, 30.200710 352.905640, 24.443050 349.645020, 21.559200 343.836853, 16.662663 340.263794, 15.672149 332.704834, 12.540585 330.297852, 15.351587 327.194824, 14.448250 319.732178, 11.282966 315.383362, 6.540015 310.033997, 3.829317 302.139221, 1.178509 298.929810, 1.120763 293.097717, 0.000000 291.780762, 0.343728 288.610229, 1.600918 285.343567, 3.239848 283.789673, 3.796282 283.431763, 8.260629 285.856812, 10.420127 285.157532, 12.357823 284.895142, 14.789833 285.040649, 16.820368 285.874451, 20.904436 287.161743, 22.288958 287.420166, 30.385101 295.738464, 35.373108 294.230896, 35.769604 291.191467, 39.402172 290.169983, 42.825897 288.852051, 45.479195 286.955566, 47.983791 285.138550, 50.436825 283.772827, 52.888309 282.783691, 55.193417 281.467285, 57.654942 280.449158, 59.946064 281.757324, 63.061325 281.468567, 65.167107 277.226074, 67.457375 276.071228, 69.646561 273.083618, 70.912842 272.867554, 75.326569 272.678894, 79.120277 272.940674, 82.468918 271.886169, 87.545044 273.612183, 97.168228 274.505981, 103.260956 272.862976, 107.403282 271.890625, 111.336678 269.727356, 119.004662 266.762146, 123.025749 266.210388, 125.717224 264.147217, 128.457184 263.892029, 131.652237 263.061646, 136.971970 260.592102, 141.993439 258.497742, 145.838959 257.252686, 151.383667 256.271729, 156.128235 257.322083, 159.011749 261.195557, 160.792175 265.794800, 163.181107 269.373474, 167.627869 266.976074, 173.543823 255.911316, 182.817963 242.670959, 185.733643 238.688843, 198.170929 227.276062, 202.919708 224.133606, 209.046921 217.534729, 216.797028 212.106628, 223.058609 205.808838, 224.837143 203.909180, 234.419662 198.716003, 240.335709 192.518616, 249.818604 185.767700, 257.427399 179.539307, 263.042023 174.963074, 268.500580 169.563782, 282.955261 158.622681, 293.246674 148.379944, 302.735413 142.054504, 312.942139 130.854858, 319.963440 124.740662, 327.211670 118.112793, 335.029968 112.681702, 338.308350 107.544250, 347.243317 99.190613, 356.643738 93.541016, 361.337006 90.726013, 367.588989 86.314148, 369.625519 85.620178, 374.814911 81.212158, 383.157410 73.099060, 386.135620 71.998901, 392.970459 66.129089, 395.926666 64.849121, 404.282440 57.808411, 406.867706 56.838684, 409.226257 55.000244, 412.477173 52.964050, 415.371155 48.897583, 417.242615 46.363098, 419.041992 41.796143, 418.541321 38.825806, 421.005157 34.750305, 423.927795 33.221558, 427.824463 35.136780, 430.204559 34.250854, 434.093079 32.846619, 439.165771 30.879883, 443.034149 26.130676, 447.456268 26.242737, 452.208405 24.946838, 461.026764 23.328003, 467.205353 21.339661, 475.233124 18.800354, 481.777161 19.872192, 487.378937 19.516602, 492.115021 18.625183, 498.049500 17.447205, 503.851624 16.308105, 511.233795 14.315308, 516.326843 11.883362, 524.160034 10.751099, 533.172302 8.550415, 538.680664 13.177307, 544.479187 13.445496, 548.684387 15.529846, 555.086487 13.784790, 561.945679 15.051086, 569.459961 13.829041, 574.757263 15.167847, 581.104919 13.169739, 586.276611 14.101074, 592.375183 14.916382, 599.133789 16.664368, 605.939880 18.790283, 612.686340 20.643555, 617.365417 19.568787, 624.726074 22.294617, 632.533508 24.314575, 639.982178 26.626648, 649.039917 30.158264, 657.933533 34.530151, 667.187622 38.616760, 677.657043 42.923340, 688.285339 48.503052, 696.967957 48.168091, 708.591370 53.236328, 777.347656 67.504028, 791.400330 67.823059, 802.480713 68.002197, 806.407349 63.435059, 813.303345 62.278625, 819.631104 61.388977, 826.514099 59.849609, 832.960815 58.333008, 840.950378 55.802185, 848.291443 55.329651, 853.441040 53.761047, 858.033936 52.423767, 860.363831 47.664246, 864.652283 45.400024, 870.797180 43.586365, 876.877869 41.641357, 883.407776 39.623230, 889.654236 38.149170, 894.279480 33.376099, 899.352234 31.611877, 902.356567 26.288574, 907.565063 24.970459, 909.236511 20.103149, 915.303345 17.972412, 918.907532 12.852966, 923.606018 13.541809, 925.010803 9.978210, 928.081360 10.009949, 930.627319 8.132751, 934.387817 8.338135, 938.913940 8.558228, 942.389771 8.177734, 945.043640 6.917175, 949.557007 2.096313, 951.958435 2.069824, 956.782410 3.424194, 959.480408 1.746765, 963.962524 2.509399, 968.684875 3.127869, 973.030029 4.077881, 975.984314 2.423035, 979.333740 3.066589, 982.106750 2.818115, 984.616821 1.091064, 987.692200 0.521667, 988.917358 0.000000, 989.617004 0.384888, 988.668945 3.778931, 987.992981 7.035645, 987.757385 10.587952, 987.646362 12.282349, 987.887573 13.127563, 988.215210 16.029053, 990.312073 18.142029, 992.919434 24.114807, 995.588379 28.743042Z "/>
    </clipPath>
    <filter id="dropshadow">
      <feGaussianBlur in="SourceAlpha" stdDeviation="2"/>
      <feMerge>
        <feMergeNode/>
        <feMergeNode in="SourceGraphic"/>
      </feMerge>
    </filter>
  </defs>
  <g inkscape:label="rois" inkscape:groupmode="layer" id="rois" transform="translate(0,0)" style="display:inline;" class="display_layer">
    <g inkscape:label="shapes" inkscape:groupmode="layer" id="rois_shapes" transform="translate(0,0)" style="display:inline;" clip-path="url(#edgeclip)"/>
    <g inkscape:label="labels" inkscape:groupmode="layer" id="rois_labels" transform="translate(0,0)" style="display:inline;">
    </g>
  </g>
  <svg:g id="sulci" style="display:inline;" inkscape:label="sulci" inkscape:groupmode="layer" class="display_layer">
    <svg:g id="sulci_shapes" style="display:inline;" inkscape:label="shapes" inkscape:groupmode="layer" clip-path="url(#edgeclip)"/>
    <svg:g id="sulci_labels" style="display:inline;" inkscape:label="labels" inkscape:groupmode="layer"/>
  </svg:g>
  <svg:g id="cutouts" style="display:inline;" inkscape:label="cutouts" inkscape:groupmode="layer" class="display_layer">
    <svg:g id="cutouts_shapes" style="display:inline;" inkscape:label="shapes" inkscape:groupmode="layer" clip-path="url(#edgeclip)"/>
    <svg:g id="cutouts_labels" style="display:inline;" inkscape:label="labels" inkscape:groupmode="layer"/>
  </svg:g>
  <svg:g id="display" style="display:inline;" inkscape:label="display" inkscape:groupmode="layer" class="display_layer">
    <svg:g id="display_shapes" style="display:inline;" inkscape:label="shapes" inkscape:groupmode="layer" clip-path="url(#edgeclip)"/>
    <svg:g id="display_labels" style="display:inline;" inkscape:label="labels" inkscape:groupmode="layer"/>
  </svg:g>
</svg>
